<svg
    width="24.64"
    height="31.68"
    viewBox="0 0 56 72"
    version="1.1"
    xmlns="http://www.w3.org/2000/svg"
    >
        <rect x="13.4182" y="24.5248" width="4.47271" height="47.4107" />
        <rect x="21.4689" y="24.5248" width="4.47271" height="47.4107" />
        <rect x="30.4143" y="24.5248" width="4.47271" height="47.4107" />
        <rect x="38.4652" y="24.5248" width="4.47271" height="47.4107" />
        <circle cx="27.7308" cy="15.5794" r="5.36725" />
        <path
            fill-rule="evenodd"
            clip-rule="evenodd"
            d="M8.49814 23.6303C13.1915 23.6303 16.9963 19.8255 16.9963 15.1321C16.9963 10.4387 13.1915 6.63397 8.49814 6.63397C3.80475 6.63397 0 10.4387 0 15.1321C0 19.8255 3.80475 23.6303 8.49814 23.6303ZM8.49832 20.231C11.3144 20.231 13.5972 17.9481 13.5972 15.1321C13.5972 12.3161 11.3144 10.0332 8.49832 10.0332C5.68228 10.0332 3.39944 12.3161 3.39944 15.1321C3.39944 17.9481 5.68228 20.231 8.49832 20.231ZM8.49832 17.6897C7.08579 17.6897 5.94072 16.5446 5.94072 15.1321C5.94072 13.7196 7.08579 12.5745 8.49832 12.5745C9.91084 12.5745 11.0559 13.7196 11.0559 15.1321C11.0559 16.5446 9.91084 17.6897 8.49832 17.6897Z"
          />
        <path
            fill-rule="evenodd"
            clip-rule="evenodd"
            d="M46.9633 23.6303C51.6567 23.6303 55.4615 19.8255 55.4615 15.1321C55.4615 10.4387 51.6567 6.63397 46.9633 6.63397C42.27 6.63397 38.4652 10.4387 38.4652 15.1321C38.4652 19.8255 42.27 23.6303 46.9633 23.6303ZM46.9634 20.231C49.7794 20.231 52.0623 17.9481 52.0623 15.1321C52.0623 12.3161 49.7794 10.0332 46.9634 10.0332C44.1473 10.0332 41.8645 12.3161 41.8645 15.1321C41.8645 17.9481 44.1473 20.231 46.9634 20.231ZM46.9634 17.6897C45.5509 17.6897 44.4058 16.5446 44.4058 15.1321C44.4058 13.7196 45.5509 12.5745 46.9634 12.5745C48.3759 12.5745 49.521 13.7196 49.521 15.1321C49.521 16.5446 48.3759 17.6897 46.9634 17.6897Z"
          />
        <rect y="0.372192" width="55.4615" height="3.57816" />
        <style>
        path,svg {
            fill: #000;
        }

        @media (prefers-color-scheme: dark) {
            path,svg {
                fill: #fff;
            }
        }
        </style>
</svg>
