<svg width="331" height="72" viewBox="0 0 331 72" fill="none" xmlns="http://www.w3.org/2000/svg">
<path d="M98.5761 18.3121C96.4001 18.3121 94.3735 18.7815 92.4961 19.7201C90.6615 20.6588 89.0401 22.0028 87.6321 23.7521C86.2668 25.5015 85.2001 27.6135 84.4321 30.0881C83.6641 32.5201 83.2801 35.2508 83.2801 38.2801C83.2801 41.3095 83.6428 44.0615 84.3681 46.5361C85.1361 48.9681 86.2028 51.0588 87.5681 52.8081C88.9761 54.5148 90.6615 55.8588 92.6241 56.8401C94.5868 57.7788 96.7841 58.2481 99.2161 58.2481C101.819 58.2481 104.123 57.6721 106.128 56.5201C108.176 55.3681 109.883 53.7895 111.248 51.7841C112.613 49.7788 113.616 47.5175 114.256 45.0001L117.52 46.2161C116.795 49.2455 115.579 51.9335 113.872 54.2801C112.165 56.5841 110.032 58.3975 107.472 59.7201C104.955 61.0001 102.075 61.6401 98.8321 61.6401C95.6748 61.6401 92.7521 61.0855 90.0641 59.9761C87.3761 58.8241 85.0508 57.2241 83.0881 55.1761C81.1255 53.0855 79.5895 50.6108 78.4801 47.7521C77.4135 44.8935 76.8801 41.7361 76.8801 38.2801C76.8801 34.8668 77.4348 31.7308 78.5441 28.8721C79.6535 26.0135 81.1895 23.5388 83.1521 21.4481C85.1575 19.3575 87.4615 17.7575 90.0641 16.6481C92.7095 15.4961 95.5255 14.9201 98.5121 14.9201C101.328 14.9201 103.781 15.3681 105.872 16.2641C108.005 17.1175 109.776 18.3548 111.184 19.9761C112.635 21.5548 113.68 23.4321 114.32 25.6081L112.272 25.1601L113.296 15.5601H116.624V29.2561H113.04C112.272 27.0375 111.248 25.1175 109.968 23.4961C108.731 21.8748 107.173 20.6161 105.296 19.7201C103.419 18.7815 101.179 18.3121 98.5761 18.3121ZM128.451 56.0721V20.4881C128.451 19.5495 127.939 18.9308 126.915 18.6321C125.891 18.3335 124.632 18.1841 123.139 18.1841H122.563V15.5601H140.355V18.1841H139.715C138.264 18.1841 137.006 18.3335 135.939 18.6321C134.915 18.9308 134.403 19.5495 134.403 20.4881V56.0721C134.403 57.0108 134.915 57.6295 135.939 57.9281C137.006 58.2268 138.264 58.3761 139.715 58.3761H140.355V61.0001H122.563V58.3761H123.139C124.632 58.3761 125.891 58.2268 126.915 57.9281C127.939 57.6295 128.451 57.0108 128.451 56.0721ZM161.047 56.0721V18.6961H157.207C155.372 18.6961 153.879 18.7815 152.727 18.9521C151.575 19.0801 150.721 19.3788 150.167 19.8481C149.612 20.2748 149.271 20.8935 149.143 21.7041L148.375 27.8481H145.367V15.5601H182.615V27.8481H179.607L178.839 21.7041C178.753 20.8935 178.412 20.2748 177.815 19.8481C177.26 19.3788 176.407 19.0801 175.255 18.9521C174.103 18.7815 172.609 18.6961 170.775 18.6961H166.999V56.0721C166.999 57.0108 167.511 57.6295 168.535 57.9281C169.559 58.2268 170.817 58.3761 172.311 58.3761H173.335V61.0001H154.647V58.3761H155.671C157.207 58.3761 158.487 58.2268 159.511 57.9281C160.535 57.6295 161.047 57.0108 161.047 56.0721ZM193.514 56.0721V20.4881C193.514 19.5495 193.002 18.9308 191.978 18.6321C190.954 18.3335 189.695 18.1841 188.202 18.1841H187.626V15.5601H205.418V18.1841H204.778C203.327 18.1841 202.068 18.3335 201.002 18.6321C199.978 18.9308 199.466 19.5495 199.466 20.4881V56.0721C199.466 57.0108 199.978 57.6295 201.002 57.9281C202.068 58.2268 203.327 58.3761 204.778 58.3761H205.418V61.0001H187.626V58.3761H188.202C189.695 58.3761 190.954 58.2268 191.978 57.9281C193.002 57.6295 193.514 57.0108 193.514 56.0721ZM222.525 44.3601C222.525 46.8348 222.802 48.9255 223.357 50.6321C223.954 52.2961 224.786 53.6615 225.853 54.7281C226.962 55.7521 228.242 56.4988 229.693 56.9681C231.186 57.4375 232.85 57.6721 234.685 57.6721C236.434 57.6721 238.034 57.4375 239.485 56.9681C240.936 56.4561 242.194 55.6881 243.261 54.6641C244.328 53.5975 245.138 52.2108 245.693 50.5041C246.248 48.7548 246.525 46.6428 246.525 44.1681V19.6561C246.525 19.4001 246.376 19.1868 246.077 19.0161C245.821 18.8455 245.437 18.6961 244.925 18.5681C244.413 18.4401 243.837 18.3548 243.197 18.3121C242.557 18.2268 241.896 18.1841 241.213 18.1841H240.317V15.5601H256.061V18.1841H255.357C254.418 18.1841 253.544 18.2908 252.733 18.5041C251.965 18.7175 251.346 19.0801 250.877 19.5921C250.408 20.0615 250.173 20.7015 250.173 21.5121V44.1681C250.173 47.2401 249.746 49.8855 248.893 52.1041C248.082 54.3228 246.909 56.1361 245.373 57.5441C243.88 58.9521 242.13 59.9975 240.125 60.6801C238.162 61.3201 236.029 61.6401 233.725 61.6401C231.208 61.6401 228.904 61.2988 226.813 60.6161C224.722 59.9335 222.909 58.9095 221.373 57.5441C219.837 56.1361 218.642 54.3441 217.789 52.1681C216.978 49.9921 216.573 47.3895 216.573 44.3601V20.4881C216.573 19.5495 216.061 18.9308 215.037 18.6321C214.013 18.3335 212.733 18.1841 211.197 18.1841H210.621V15.5601H228.413V18.1841H227.837C227.24 18.1841 226.621 18.2055 225.981 18.2481C225.384 18.2481 224.808 18.2908 224.253 18.3761C223.741 18.4188 223.314 18.4828 222.973 18.5681C222.674 18.6108 222.525 18.6961 222.525 18.8241V44.3601ZM261.313 61.0001V58.3761H262.017C262.998 58.3761 263.873 58.2908 264.641 58.1201C265.409 57.9495 266.028 57.6508 266.497 57.2241C266.966 56.7548 267.201 56.1575 267.201 55.4321V20.4881C267.201 19.8481 266.966 19.3788 266.497 19.0801C266.028 18.7388 265.409 18.5041 264.641 18.3761C263.873 18.2481 262.998 18.1841 262.017 18.1841H261.313V15.5601H275.969L288.961 56.0081L287.809 55.8801L301.313 15.5601H315.713V18.1841H315.137C314.156 18.1841 313.26 18.2481 312.449 18.3761C311.638 18.5041 310.998 18.7388 310.529 19.0801C310.06 19.3788 309.825 19.8481 309.825 20.4881V56.0721C309.825 56.6695 310.06 57.1388 310.529 57.4801C310.998 57.8215 311.638 58.0561 312.449 58.1841C313.26 58.3121 314.156 58.3761 315.137 58.3761H315.713V61.0001H298.369V58.3761H298.945C299.713 58.3761 300.46 58.3548 301.185 58.3121C301.953 58.2695 302.593 58.2055 303.105 58.1201C303.617 57.9921 303.873 57.8641 303.873 57.7361V16.5201L304.513 16.6481L289.281 61.1281H285.377L270.145 16.6481L270.849 16.7121V57.2241C270.849 57.4801 271.105 57.7148 271.617 57.9281C272.129 58.0988 272.769 58.2268 273.537 58.3121C274.348 58.3548 275.137 58.3761 275.905 58.3761H276.481V61.0001H261.313Z" fill="black"/>
<rect x="13.4182" y="24.5248" width="4.47271" height="47.4107" fill="black"/>
<rect x="21.4689" y="24.5248" width="4.47271" height="47.4107" fill="black"/>
<rect x="30.4143" y="24.5248" width="4.47271" height="47.4107" fill="black"/>
<rect x="38.4652" y="24.5248" width="4.47271" height="47.4107" fill="black"/>
<circle cx="27.7308" cy="15.5794" r="5.36725" fill="black"/>
<path fill-rule="evenodd" clip-rule="evenodd" d="M8.49814 23.6303C13.1915 23.6303 16.9963 19.8255 16.9963 15.1321C16.9963 10.4387 13.1915 6.63397 8.49814 6.63397C3.80475 6.63397 0 10.4387 0 15.1321C0 19.8255 3.80475 23.6303 8.49814 23.6303ZM8.49832 20.231C11.3144 20.231 13.5972 17.9481 13.5972 15.1321C13.5972 12.3161 11.3144 10.0332 8.49832 10.0332C5.68228 10.0332 3.39944 12.3161 3.39944 15.1321C3.39944 17.9481 5.68228 20.231 8.49832 20.231ZM8.49832 17.6897C7.08579 17.6897 5.94072 16.5446 5.94072 15.1321C5.94072 13.7196 7.08579 12.5745 8.49832 12.5745C9.91084 12.5745 11.0559 13.7196 11.0559 15.1321C11.0559 16.5446 9.91084 17.6897 8.49832 17.6897Z" fill="black"/>
<path fill-rule="evenodd" clip-rule="evenodd" d="M46.9633 23.6303C51.6567 23.6303 55.4615 19.8255 55.4615 15.1321C55.4615 10.4387 51.6567 6.63397 46.9633 6.63397C42.27 6.63397 38.4652 10.4387 38.4652 15.1321C38.4652 19.8255 42.27 23.6303 46.9633 23.6303ZM46.9634 20.231C49.7794 20.231 52.0623 17.9481 52.0623 15.1321C52.0623 12.3161 49.7794 10.0332 46.9634 10.0332C44.1473 10.0332 41.8645 12.3161 41.8645 15.1321C41.8645 17.9481 44.1473 20.231 46.9634 20.231ZM46.9634 17.6897C45.5509 17.6897 44.4058 16.5446 44.4058 15.1321C44.4058 13.7196 45.5509 12.5745 46.9634 12.5745C48.3759 12.5745 49.521 13.7196 49.521 15.1321C49.521 16.5446 48.3759 17.6897 46.9634 17.6897Z" fill="black"/>
<rect y="0.372192" width="55.4615" height="3.57816" fill="black"/>
</svg>
